<?xml version="1.0" standalone="no"?>
<!DOCTYPE svg PUBLIC "-//W3C//DTD SVG 20010904//EN"
 "http://www.w3.org/TR/2001/REC-SVG-20010904/DTD/svg10.dtd">
<svg version="1.0" xmlns="http://www.w3.org/2000/svg"
 width="256.000000pt" height="256.000000pt" viewBox="0 0 256.000000 256.000000"
 preserveAspectRatio="xMidYMid meet">
<metadata>
Created by potrace 1.15, written by Peter Selinger 2001-2017
</metadata>
<g transform="translate(0.000000,256.000000) scale(0.100000,-0.100000)"
fill="#000000" stroke="none">
<path d="M940 2526 c-69 -18 -145 -42 -170 -53 -25 -11 -64 -28 -87 -38 -24
-10 -43 -22 -43 -26 0 -4 -10 -11 -22 -15 -57 -18 -226 -147 -293 -224 -16
-19 -43 -48 -58 -65 -72 -75 -193 -292 -217 -385 -5 -19 -18 -68 -29 -109 -19
-67 -21 -103 -21 -330 0 -227 3 -265 21 -331 11 -41 24 -91 29 -110 20 -77
108 -246 175 -335 82 -107 204 -223 315 -298 30 -20 58 -37 62 -37 4 0 22 -10
40 -23 41 -27 194 -87 303 -118 70 -21 107 -24 308 -27 l228 -4 127 33 c70 17
150 42 177 55 28 12 66 30 85 39 72 33 193 108 227 139 13 12 42 37 66 56 56
45 176 187 227 267 45 72 107 202 120 253 5 19 18 68 29 109 19 67 21 103 21
330 0 227 -3 265 -21 331 -11 41 -24 91 -29 110 -20 77 -108 246 -175 335 -84
111 -213 232 -315 296 -30 19 -64 40 -75 47 -23 14 -78 41 -155 76 -30 13
-111 38 -179 55 -120 30 -133 31 -335 31 -206 -1 -214 -2 -336 -34z m808 -827
c83 -41 122 -143 88 -232 -12 -32 -52 -78 -146 -171 -72 -71 -130 -131 -130
-135 0 -3 57 -62 126 -131 69 -69 132 -139 140 -157 27 -63 10 -148 -39 -201
-50 -54 -145 -77 -211 -52 -14 5 -87 68 -163 139 l-137 130 -137 -134 c-104
-101 -146 -136 -175 -144 -157 -44 -285 77 -244 229 10 36 35 67 143 177 73
74 133 137 135 141 1 4 -56 65 -128 136 -140 140 -156 165 -148 247 5 53 37
103 90 140 40 29 129 37 178 16 19 -8 94 -71 166 -140 l131 -126 124 125 c68
68 142 133 164 144 52 26 118 25 173 -1z"/>
</g>
</svg>
