<?xml version="1.0" encoding="UTF-8" standalone="no"?>
<!-- Created with Inkscape (http://www.inkscape.org/) -->

<svg
   xmlns:dc="http://purl.org/dc/elements/1.1/"
   xmlns:cc="http://creativecommons.org/ns#"
   xmlns:rdf="http://www.w3.org/1999/02/22-rdf-syntax-ns#"
   xmlns:svg="http://www.w3.org/2000/svg"
   xmlns="http://www.w3.org/2000/svg"
   xmlns:sodipodi="http://sodipodi.sourceforge.net/DTD/sodipodi-0.dtd"
   xmlns:inkscape="http://www.inkscape.org/namespaces/inkscape"
   width="744.09448819"
   height="1052.3622047"
   id="svg2"
   version="1.1"
   inkscape:version="0.48.2 r9819"
   sodipodi:docname="заготовка для уголков.svg">
  <defs
     id="defs4" />
  <sodipodi:namedview
     id="base"
     pagecolor="#ffffff"
     bordercolor="#666666"
     borderopacity="1.0"
     inkscape:pageopacity="0.0"
     inkscape:pageshadow="2"
     inkscape:zoom="0.98994949"
     inkscape:cx="349.89293"
     inkscape:cy="403.73838"
     inkscape:document-units="px"
     inkscape:current-layer="layer1-9"
     showgrid="false"
     inkscape:window-width="1280"
     inkscape:window-height="737"
     inkscape:window-x="-4"
     inkscape:window-y="-4"
     inkscape:window-maximized="1"
     showguides="true"
     inkscape:guide-bbox="true">
    <sodipodi:guide
       orientation="0,1"
       position="267.18535,815.69818"
       id="guide3878" />
    <sodipodi:guide
       orientation="1,0"
       position="393.45442,916.71344"
       id="guide3880" />
  </sodipodi:namedview>
  <metadata
     id="metadata7">
    <rdf:RDF>
      <cc:Work
         rdf:about="">
        <dc:format>image/svg+xml</dc:format>
        <dc:type
           rdf:resource="http://purl.org/dc/dcmitype/StillImage" />
        <dc:title></dc:title>
      </cc:Work>
    </rdf:RDF>
  </metadata>
  <g
     inkscape:label="Layer 1"
     inkscape:groupmode="layer"
     id="layer1">
    <g
       id="layer1-9"
       inkscape:label="Layer 1"
       transform="translate(253.24746,92.928574)">
      <path
         style="fill:#ff7f2a;fill-opacity:1;stroke:#000000;stroke-width:4;stroke-linecap:butt;stroke-linejoin:miter;stroke-miterlimit:4;stroke-opacity:1;stroke-dasharray:none"
         d="M 283.125 123.46875 L 283.125 399.78125 L 563.4375 399.78125 L 563.4375 123.46875 L 283.125 123.46875 z M 318.125 140.53125 L 372.65625 140.53125 C 384.18218 140.53125 393.46875 149.81782 393.46875 161.34375 C 393.46875 149.81782 402.72407 140.53125 414.25 140.53125 L 468.78125 140.53125 C 480.30718 140.53125 489.59375 149.81782 489.59375 161.34375 L 489.59375 215.84375 C 489.59375 227.36968 480.30718 236.65625 468.78125 236.65625 C 480.30718 236.65625 489.59375 245.94282 489.59375 257.46875 L 489.59375 312 C 489.59375 323.52593 480.30718 332.78125 468.78125 332.78125 L 414.25 332.78125 C 402.72407 332.78125 393.46875 323.52593 393.46875 312 C 393.46875 323.52593 384.18218 332.78125 372.65625 332.78125 L 318.125 332.78125 C 306.59907 332.78125 297.34375 323.52593 297.34375 312 L 297.34375 257.46875 C 297.34375 245.94282 306.59907 236.65625 318.125 236.65625 C 306.59907 236.65625 297.34375 227.36968 297.34375 215.84375 L 297.34375 161.34375 C 297.34375 149.81782 306.59907 140.53125 318.125 140.53125 z M 393.46875 215.84375 C 393.46875 227.36968 384.18218 236.65625 372.65625 236.65625 C 384.18218 236.65625 393.46875 245.94282 393.46875 257.46875 C 393.46875 245.94282 402.72407 236.65625 414.25 236.65625 C 402.72407 236.65625 393.46875 227.36968 393.46875 215.84375 z "
         transform="translate(-253.24746,-92.928574)"
         id="rect3755"
         inkscape:export-xdpi="90"
         inkscape:export-ydpi="90" />
      <path
         inkscape:connector-curvature="0"
         style="fill:#ff7f2a;fill-opacity:1;stroke:#000000;stroke-width:2;stroke-linecap:butt;stroke-linejoin:miter;stroke-miterlimit:4;stroke-opacity:1;stroke-dasharray:none"
         d="m 29.863211,324.28231 0,276.3125 280.312499,0 0,-276.3125 z m 34.999999,17.0625 54.53125,0 c 11.52593,0 20.8125,9.28657 20.8125,20.8125 0,-11.52593 9.25532,-20.8125 20.78125,-20.8125 l 54.53125,0 c 11.52593,0 20.8125,9.28657 20.8125,20.8125 l 0,54.5 c 0,11.52593 -9.28657,20.8125 -20.8125,20.8125 11.52593,0 20.8125,9.28657 20.8125,20.8125 l 0,54.53125 c 0,11.52593 -9.28657,20.78125 -20.8125,20.78125 l -54.53125,0 c -11.52593,0 -20.78125,-9.25532 -20.78125,-20.78125 0,11.52593 -9.28657,20.78125 -20.8125,20.78125 l -54.53125,0 c -11.52593,0 -20.781249,-9.25532 -20.781249,-20.78125 l 0,-54.53125 c 0,-11.52593 9.255319,-20.8125 20.781249,-20.8125 -11.52593,0 -20.781249,-9.28657 -20.781249,-20.8125 l 0,-54.5 c 0,-11.52593 9.255319,-20.8125 20.781249,-20.8125 z m 75.34375,80.04464 c 0,11.52593 -2.59014,16.08036 -14.11607,16.08036 11.52593,0 14.11607,3.66157 14.11607,15.1875 0,-11.52593 2.91603,-15.1875 14.44196,-15.1875 -11.52593,0 -14.44196,-4.55443 -14.44196,-16.08036 z"
         id="rect3755-2"
         inkscape:export-xdpi="90"
         inkscape:export-ydpi="90"
         sodipodi:nodetypes="cccccsscsssscsssscsssscsssccccc" />
    </g>
    <g
       id="layer1-9-2"
       inkscape:label="Layer 1"
       transform="translate(-9.6750933,291.21557)">
      <path
         style="fill:#ff7f2a;fill-opacity:1;stroke:#000000;stroke-width:2;stroke-linecap:butt;stroke-linejoin:miter;stroke-miterlimit:4;stroke-opacity:1;stroke-dasharray:none"
         d="M 16.8125 337.5625 L 16.8125 516.5625 L 246.8125 516.5625 L 246.8125 337.5625 L 16.8125 337.5625 z M 42.09375 350.96875 L 200.875 350.96875 C 206.7004 350.96875 211.40625 355.6746 211.40625 361.5 L 211.40625 483.9375 C 211.40625 489.7629 206.7004 494.4375 200.875 494.4375 L 42.09375 494.4375 C 36.268346 494.4375 31.5625 489.7629 31.5625 483.9375 L 31.5625 361.5 C 31.5625 355.6746 36.268346 350.96875 42.09375 350.96875 z "
         transform="translate(9.6750933,-291.21557)"
         id="rect3755-4"
         inkscape:export-filename="C:\kursy\html2\раздача\mod5\elements\заготовка РАСТР.png"
         inkscape:export-xdpi="90"
         inkscape:export-ydpi="90" />
    </g>
    <g
       id="layer1-9-9"
       inkscape:label="Layer 1"
       transform="translate(-14.357143,95.07143)">
      <rect
         ry="0"
         y="46.362183"
         x="26.5"
         height="179"
         width="230"
         id="rect3755-6"
         style="fill:#ff7f2a;fill-opacity:1;stroke:#000000;stroke-width:2;stroke-linecap:butt;stroke-linejoin:miter;stroke-miterlimit:4;stroke-opacity:1;stroke-dasharray:none" />
      <rect
         inkscape:export-ydpi="90"
         inkscape:export-xdpi="90"
         ry="10.51517"
         y="59.764229"
         x="41.251289"
         height="143.47141"
         width="179.81975"
         id="rect2985-8"
         style="fill:#ffffcc;fill-opacity:1;stroke:#000000;stroke-width:2;stroke-linecap:butt;stroke-miterlimit:4;stroke-opacity:1;stroke-dasharray:none" />
    </g>
  </g>
</svg>
